<svg xmlns="http://www.w3.org/2000/svg" width="32" height="32" viewBox="0 0 8.467 8.467" xmlns:v="https://vecta.io/nano"><path d="M4.232 0C1.894.001 0 1.896 0 4.233c0 1.933 1.31 3.62 3.18 4.1-.014-.714-.005-2.108.277-2.244C.93 5.774 1.43 3.338 1.97 2.872c-.228-.578.05-1.132.05-1.132.46-.036.96.312 1.168.454.683-.198 1.478-.197 2.092 0 .207-.14.71-.49 1.168-.454 0 0 .278.554.05 1.132.54.467 1.04 2.902-1.488 3.218.283.137.292 1.53.277 2.244 1.872-.48 3.18-2.168 3.18-4.1C8.467 1.895 6.57 0 4.233 0z" fill="#fff" paint-order="markers fill stroke"/></svg>